<?xml version="1.0" encoding="UTF-8"?>
<svg id="Calque_1" data-name="Calque 1" xmlns="http://www.w3.org/2000/svg" viewBox="0 0 20 20">
  <defs>
    <style>
      .cls-1 {
        fill: #fff;
        stroke-width: 0px;
      }
    </style>
  </defs>
  <path class="cls-1" d="M10,20C4.49,20,0,15.51,0,10S4.49,0,10,0s10,4.49,10,10-4.49,10-10,10ZM10,2.15c-4.33,0-7.85,3.52-7.85,7.85s3.52,7.85,7.85,7.85,7.85-3.52,7.85-7.85-3.52-7.85-7.85-7.85Z"/>
  <polygon class="cls-1" points="6.14 8.65 6.14 11.19 9.66 11.19 8.39 12.47 10 14.01 13.93 9.92 10 5.87 8.38 7.33 9.68 8.64 6.14 8.65"/>
</svg>